<svg width="100" height="100" viewBox="0 0 100 100" fill="none" xmlns="http://www.w3.org/2000/svg">
<path fill-rule="evenodd" clip-rule="evenodd" d="M74.4259 79.1097C72.9203 80.373 71.3253 81.5124 69.6567 82.521C65.1604 85.2387 60.1303 87.0058 54.8778 87.6856C47.6762 88.6177 40.3583 87.4669 33.7904 84.3693C27.2225 81.2717 21.6797 76.357 17.8182 70.2072C13.9566 64.0573 11.9381 56.9298 12.0014 49.6684C12.0648 42.407 14.2075 35.3157 18.1757 29.2342C22.144 23.1527 27.7717 18.3355 34.3927 15.353C41.0136 12.3705 48.3505 11.3475 55.5348 12.4052C60.7745 13.1766 65.7731 15.0313 70.2213 17.827C71.872 18.8645 73.4469 20.0316 74.9302 21.321L57.4791 41.3963C55.8349 39.9671 53.8157 39.0389 51.6604 38.7215C49.5052 38.4042 47.3041 38.7111 45.3178 39.6059C43.3315 40.5006 41.6432 41.9458 40.4527 43.7703C39.2622 45.5947 38.6194 47.7221 38.6004 49.9005C38.5814 52.0789 39.187 54.2172 40.3455 56.0621C41.5039 57.9071 43.1668 59.3815 45.1371 60.3108C47.1075 61.2401 49.3029 61.5853 51.4633 61.3057C53.6219 61.0263 55.6554 60.1348 57.3234 58.7366C57.3249 58.7353 57.3263 58.7341 57.3278 58.7329L74.4259 79.1097ZM55.9509 66.1869C54.749 66.6288 53.496 66.9375 52.2138 67.1035C48.9453 67.5265 45.6241 67.0042 42.6433 65.5984C39.6625 64.1925 37.147 61.962 35.3944 59.1709C33.6419 56.3798 32.7257 53.145 32.7545 49.8495C32.7833 46.5539 33.7557 43.3356 35.5567 40.5755C37.3577 37.8154 39.9118 35.6292 42.9167 34.2756C45.9216 32.922 49.2514 32.4577 52.5119 32.9377C53.7911 33.1261 55.0385 33.4566 56.2324 33.9194L66.3311 22.3022C62.7666 20.2005 58.8135 18.7971 54.6833 18.189C48.6043 17.2941 42.3961 18.1597 36.7938 20.6833C31.1915 23.207 26.4296 27.283 23.0718 32.429C19.714 37.5749 17.901 43.5751 17.8474 49.7194C17.7938 55.8637 19.5018 61.8946 22.7692 67.0984C26.0367 72.3021 30.7267 76.4606 36.2842 79.0817C41.8416 81.7027 48.0337 82.6765 54.1274 81.8878C58.2676 81.3519 62.2446 80.0177 65.8452 77.9785L55.9509 66.1869Z" fill="#212121"/>
<mask id="mask0_1719_27" style="mask-type:alpha" maskUnits="userSpaceOnUse" x="12" y="12" width="76" height="77">
<path fill-rule="evenodd" clip-rule="evenodd" d="M50 88.0001C70.9868 88.0001 88 70.9869 88 50.0001C88 29.0133 70.9868 12.0001 50 12.0001C29.0132 12.0001 12 29.0133 12 50.0001C12 70.9869 29.0132 88.0001 50 88.0001ZM50 61.3027C56.2422 61.3027 61.3025 56.2423 61.3025 50.0001C61.3025 43.7579 56.2422 38.6975 50 38.6975C43.7577 38.6975 38.6974 43.7579 38.6974 50.0001C38.6974 56.2423 43.7577 61.3027 50 61.3027Z" fill="white"/>
</mask>
<g mask="url(#mask0_1719_27)">
<path d="M82.9245 68.9731C80.6934 72.8447 77.7971 76.2925 74.3684 79.1579L57.3105 58.7475C58.3391 57.8879 59.208 56.8535 59.8773 55.6921L82.9245 68.9731Z" fill="#4254F5"/>
<path d="M87.3999 56.7264C86.609 61.1242 85.0486 65.3481 82.7904 69.2039L59.8371 55.7613C60.5145 54.6045 60.9827 53.3374 61.2199 52.018L87.3999 56.7264Z" fill="#2CA57B"/>
<path d="M87.4462 43.5368C88.2062 47.9401 88.1837 52.4429 87.3796 56.8383L61.2138 52.0515C61.4551 50.7329 61.4618 49.3821 61.2338 48.0611L87.4462 43.5368Z" fill="#DDB227"/>
<path d="M83.2499 31.6034C85.4131 35.5133 86.8698 39.774 87.5531 44.1898L61.2659 48.2571C61.0609 46.9323 60.6239 45.6541 59.9749 44.4811L83.2499 31.6034Z" fill="#DD7608"/>
<path d="M74.8838 21.2809C78.2609 24.2069 81.0954 27.7057 83.2571 31.6164L59.9771 44.485C59.3286 43.3118 58.4782 42.2621 57.4651 41.3843L74.8838 21.2809Z" fill="#D73E0F"/>
</g>
</svg>
