<svg xmlns="http://www.w3.org/2000/svg" id="logosandtypes_com" viewBox="0 0 150 150"><path d="M0 0h150v150H0V0z" fill="none"/><path d="M118.7 128.8c.3-.2.5-.6.5-1V42c0-.3-.2-.5-.5-.5H86.1C67.8 41.5 53 56.3 53 74.6s14.9 33.1 33.2 33.1c5 0 10-1.1 14.5-3.3v11.2c0 .4-.2.9-.7 1-23.2 7.7-48.2-5-55.9-28.2s5-48.2 28.2-55.9c4.4-1.5 9.1-2.2 13.8-2.2h32.6c.3 0 .6-.2.6-.5v-18c0-.3-.2-.5-.5-.6H85.4c-35 .4-63 29-62.6 64 .4 33.9 27.4 61.5 61.2 62.6h4.6c4.4-.2 8.8-.8 13-1.9 6-1.5 11.8-3.9 17.1-7.1zm-18-54.2c0 8-6.5 14.5-14.5 14.6-8 0-14.5-6.5-14.6-14.5 0-8 6.5-14.5 14.5-14.6h13.8c.4 0 .7.3.7.6v13.9z" fill="#ff6342"/></svg>