<svg width="100" height="100" viewBox="0 0 100 100" fill="none" xmlns="http://www.w3.org/2000/svg">
<path d="M5 18V82H94V18H5ZM20.4362 71.2277H18.0175V28.8087H20.4362V71.2277ZM25.2519 71.2277H22.8332V28.8087H25.2519V71.2277ZM44.8395 71.2277H27.6561V28.8087H30.0748V60.7905H44.8395V71.2277ZM51.7346 71.2277H49.3159V28.8087H51.7346V71.2277ZM56.5503 71.2277H54.1316V28.8087H56.5503V71.2277ZM68.3765 60.7905H61.3659V71.2277H58.9473V28.7431H68.3765C72.4277 28.9739 76.2376 30.76 79.0247 33.7349C81.8118 36.7099 83.3647 40.648 83.3647 44.7413C83.3647 48.8347 81.8118 52.7728 79.0247 55.7477C76.2376 58.7226 72.4277 60.5087 68.3765 60.7395V60.7905Z" fill="#157BC0"/>
</svg>
