<svg width="100" height="100" viewBox="0 0 100 100" fill="none" xmlns="http://www.w3.org/2000/svg">
<path fill-rule="evenodd" clip-rule="evenodd" d="M86.9692 71.7896C84.2248 73.5472 80.1545 74.0406 77.8418 74.0406C75.3442 74.0406 73.0315 72.3754 70.9347 68.7985C69.4511 66.1733 68.3209 63.3635 67.5736 60.4421C66.3402 56.0326 64.6442 54.1516 63.38 53.1032L62.9791 52.6715L62.9152 52.6077L62.9152 52.6077C62.3189 52.0125 61.7287 51.4232 62.1157 51.0064C62.3315 50.7905 63.1641 50.3897 64.2125 49.958C68.193 48.4935 71.934 46.4463 75.3133 43.8834C77.4781 42.2697 79.2473 40.1845 80.4867 37.7857C81.7262 35.3869 82.4035 32.7375 82.4672 30.0382C82.4672 27.1088 81.8505 24.7962 80.3703 22.6993C78.7362 20.6111 76.5604 19.0113 74.0799 18.074C69.6132 16.6145 64.9329 15.9161 60.2347 16.008C56.8736 16.008 45.557 16.193 34.6412 19.77C20.8269 25.2279 13.7038 32.7517 13.0563 43.2358C12.9121 44.5883 13.0456 45.9559 13.4486 47.255C13.8515 48.554 14.5155 49.7571 15.3998 50.7905C17.0649 52.6715 19.5934 53.5041 22.9237 53.5041C26.5006 53.5041 30.0467 52.0548 32.5752 49.5263C34.2403 47.8612 34.8879 46.1652 35.1037 44.9009V44.5001L34.672 44.7159L34.4567 44.7604C33.508 44.9566 32.7333 45.1168 31.9585 45.1168C30.0467 45.1168 28.5666 44.2842 27.9499 42.835C27.3332 41.5707 27.1173 39.9056 27.1173 39.0422C27.1173 34.8486 30.0467 30.2541 34.8879 26.708C39.3754 23.3103 44.7775 21.3342 50.3982 21.0342C48.6922 23.5119 47.2846 26.1822 46.2045 28.9898C41.0356 45.5928 36.2037 62.2988 31.7118 79.0976C31.0951 82.027 31.5268 83.0754 31.7118 83.4762C31.8542 83.3694 31.9761 83.386 32.2198 83.419C32.3983 83.4432 32.642 83.4762 33.0069 83.4762H38.0331C39.8637 83.5708 41.6974 83.3624 43.4602 82.8595C44.3236 82.4278 44.5086 82.2428 44.5086 82.027C44.7244 78.8817 45.372 74.4723 46.4204 70.3095C46.6983 68.6847 47.2875 66.5855 47.9002 64.4026C48.1713 63.437 48.4469 62.455 48.7022 61.4905C49.5656 58.5303 50.3982 55.6317 50.614 54.1516C50.6528 53.6881 50.8647 53.2562 51.2075 52.942C51.5504 52.6277 51.9991 52.454 52.4642 52.4557C53.5434 52.4557 54.5918 53.3191 55.2394 53.9358C56.6886 55.8167 58.1379 58.962 57.9221 64.204C57.737 68.3977 57.9221 75.7365 61.7148 79.9302C63.565 81.8111 66.1243 82.8595 69.2387 82.8595C73.6482 82.8595 78.3044 80.8861 80.5862 79.7143C82.8372 78.5426 85.2115 76.4149 87 71.7896H86.9692ZM61.6841 20.2016C62.0849 19.9857 62.5783 19.9857 62.7941 19.9857C63.6267 19.9857 65.9394 20.8183 67.8203 22.9151C69.0538 24.3952 70.5339 26.9237 70.133 30.6548C69.8125 34.2453 68.8077 37.7412 67.1728 40.9539C65.9563 43.5209 64.021 45.6797 61.6017 47.1684C59.1825 48.6572 56.3832 49.412 53.5435 49.3412H52.5259C52.1213 49.3412 51.9334 49.1516 51.7337 48.9501L51.6933 48.9095C51.2616 48.2928 51.4775 47.2135 52.5259 44.2841C52.6222 44.0755 52.6684 43.8586 52.7209 43.6115L52.7209 43.6114C52.7694 43.3838 52.8233 43.1306 52.9268 42.8349C57.1204 28.9897 60.0498 22.4834 60.4815 21.8667C60.9132 21.0341 61.2524 20.3866 61.6841 20.2016Z" fill="#FF6200"/>
</svg>
