<svg width="100" height="100" viewBox="0 0 100 100" fill="none" xmlns="http://www.w3.org/2000/svg">
<path fill-rule="evenodd" clip-rule="evenodd" d="M32.0429 79.8806C37.0204 84.1225 42.4632 87.7859 48.2667 90.8005C49.3761 91.3552 50.6241 91.3552 51.7334 90.8005C57.5369 87.7859 62.9797 84.1225 67.9572 79.8806C78.3224 70.9714 84.6664 60.8488 84.6664 49.6169V23.1319C84.6664 21.5719 83.6611 20.1505 82.1704 19.5959L51.352 8.26C50.4854 7.91333 49.5147 7.91333 48.6481 8.26L17.8297 19.5959C16.3391 20.1505 15.3337 21.5719 15.3337 23.1319V49.6169C15.3337 60.8141 21.643 70.9714 32.0429 79.8806Z" fill="#FF6200"/>
<path fill-rule="evenodd" clip-rule="evenodd" d="M69.4826 58.3359C67.8978 59.3509 65.5474 59.6358 64.2119 59.6358C62.7696 59.6358 61.4342 58.6743 60.2233 56.6087C59.3666 55.0928 58.714 53.4702 58.2824 51.7833C57.5702 49.237 56.5909 48.1508 55.8608 47.5454L55.6293 47.2961L55.5924 47.2592L55.5924 47.2592C55.2481 46.9155 54.9073 46.5752 55.1308 46.3346C55.2554 46.2099 55.7362 45.9784 56.3416 45.7291C58.6401 44.8835 60.8004 43.7013 62.7518 42.2213C64.0019 41.2895 65.0235 40.0854 65.7392 38.7002C66.455 37.315 66.8461 35.7851 66.8829 34.2263C66.8829 32.5347 66.5267 31.1993 65.672 29.9885C64.7284 28.7826 63.4719 27.8588 62.0396 27.3175C59.4602 26.4747 56.7576 26.0714 54.0446 26.1245C52.1037 26.1245 45.5688 26.2313 39.2654 28.2969C31.2882 31.4486 27.175 35.7933 26.8011 41.8474C26.7178 42.6284 26.7949 43.4181 27.0276 44.1683C27.2603 44.9184 27.6437 45.6132 28.1543 46.2099C29.1159 47.2961 30.576 47.7769 32.4991 47.7769C34.5646 47.7769 36.6123 46.94 38.0724 45.4799C39.0339 44.5183 39.4079 43.539 39.5325 42.8089V42.5774L39.2832 42.7021L39.1589 42.7278C38.611 42.8411 38.1637 42.9336 37.7163 42.9336C36.6123 42.9336 35.7576 42.4528 35.4015 41.6159C35.0453 40.8859 34.9207 39.9243 34.9207 39.4257C34.9207 37.0041 36.6123 34.351 39.4079 32.3033C41.9992 30.3413 45.1187 29.2002 48.3644 29.0269C47.3793 30.4577 46.5664 31.9997 45.9427 33.6209C42.9579 43.2084 40.1677 52.8554 37.5738 62.556C37.2177 64.2476 37.467 64.853 37.5738 65.0845C37.6561 65.0228 37.7264 65.0324 37.8672 65.0514C37.9702 65.0654 38.111 65.0845 38.3217 65.0845H41.2241C42.2812 65.1391 43.3401 65.0188 44.358 64.7284C44.8566 64.4791 44.9634 64.3722 44.9634 64.2476C45.088 62.4314 45.462 59.8851 46.0674 57.4812C46.2279 56.543 46.5681 55.3308 46.9219 54.0703L46.9219 54.0703C47.0784 53.5127 47.2376 52.9457 47.385 52.3887C47.8836 50.6793 48.3644 49.0055 48.489 48.1508C48.5114 47.8831 48.6338 47.6337 48.8318 47.4523C49.0297 47.2708 49.2888 47.1705 49.5574 47.1714C50.1806 47.1714 50.786 47.67 51.16 48.0261C51.9969 49.1123 52.8338 50.9286 52.7091 53.9556C52.6023 56.3773 52.7091 60.6151 54.8993 63.0368C55.9676 64.123 57.4456 64.7284 59.244 64.7284C61.7903 64.7284 64.479 63.5888 65.7967 62.9121C67.0965 62.2355 68.4676 61.0069 69.5004 58.3359H69.4826ZM54.8815 28.5461C55.113 28.4214 55.3978 28.4214 55.5225 28.4214C56.0033 28.4214 57.3387 28.9022 58.4249 30.113C59.1372 30.9677 59.9919 32.4278 59.7604 34.5824C59.5753 36.6557 58.9951 38.6745 58.051 40.5296C57.3485 42.0119 56.231 43.2585 54.8339 44.1182C53.4369 44.9779 51.8205 45.4138 50.1806 45.3729H49.593C49.3594 45.3729 49.2509 45.2634 49.1355 45.1471L49.1123 45.1236C48.863 44.7675 48.9876 44.1443 49.593 42.4527C49.6486 42.3322 49.6753 42.2069 49.7057 42.0642L49.7057 42.0642C49.7336 41.9328 49.7647 41.7866 49.8245 41.6158C52.2461 33.6208 53.9377 29.8637 54.187 29.5076C54.4363 29.0268 54.6322 28.6529 54.8815 28.5461Z" fill="white"/>
</svg>
