<svg width="987" height="667" viewBox="0 0 987 667" fill="none" xmlns="http://www.w3.org/2000/svg">
<path d="M404.558 55.15L398.75 59.176C399.762 61.288 401.126 63.246 402.842 65.05C404.558 66.854 406.56 68.306 408.848 69.406C411.18 70.462 413.71 70.99 416.438 70.99C418.418 70.99 420.31 70.66 422.114 70C423.962 69.384 425.612 68.504 427.064 67.36C428.516 66.172 429.66 64.72 430.496 63.004C431.332 61.288 431.75 59.352 431.75 57.196C431.75 55.172 431.398 53.412 430.694 51.916C430.034 50.42 429.132 49.122 427.988 48.022C426.844 46.878 425.568 45.932 424.16 45.184C422.796 44.436 421.432 43.82 420.068 43.336C417.604 42.456 415.602 41.598 414.062 40.762C412.522 39.926 411.378 39.046 410.63 38.122C409.926 37.154 409.574 36.076 409.574 34.888C409.574 33.568 410.08 32.424 411.092 31.456C412.104 30.444 413.688 29.938 415.844 29.938C417.384 29.938 418.726 30.246 419.87 30.862C421.058 31.434 422.092 32.226 422.972 33.238C423.852 34.206 424.578 35.262 425.15 36.406L431.486 32.842C430.694 31.214 429.594 29.652 428.186 28.156C426.822 26.66 425.128 25.428 423.104 24.46C421.08 23.492 418.704 23.008 415.976 23.008C413.204 23.008 410.718 23.536 408.518 24.592C406.362 25.604 404.646 27.056 403.37 28.948C402.094 30.796 401.456 32.952 401.456 35.416C401.456 37.572 401.874 39.42 402.71 40.96C403.546 42.456 404.602 43.732 405.878 44.788C407.154 45.8 408.496 46.658 409.904 47.362C411.312 48.022 412.588 48.55 413.732 48.946C415.668 49.65 417.362 50.376 418.814 51.124C420.31 51.828 421.476 52.708 422.312 53.764C423.148 54.776 423.566 56.14 423.566 57.856C423.566 59.66 422.906 61.134 421.586 62.278C420.266 63.422 418.55 63.994 416.438 63.994C414.678 63.994 413.094 63.642 411.686 62.938C410.278 62.19 408.98 61.156 407.792 59.836C406.648 58.472 405.57 56.91 404.558 55.15ZM434.925 39.64V45.91H452.151V39.64H434.925ZM440.007 29.08V70H447.069V29.08H440.007ZM461.555 60.562C461.555 59.594 461.775 58.78 462.215 58.12C462.699 57.46 463.403 56.954 464.327 56.602C465.251 56.206 466.461 56.008 467.957 56.008C469.673 56.008 471.301 56.228 472.841 56.668C474.381 57.108 475.833 57.812 477.197 58.78V55.15C476.801 54.666 476.119 54.138 475.151 53.566C474.183 52.95 472.951 52.422 471.455 51.982C470.003 51.542 468.265 51.322 466.241 51.322C462.457 51.322 459.531 52.202 457.463 53.962C455.395 55.678 454.361 58.01 454.361 60.958C454.361 63.026 454.845 64.786 455.813 66.238C456.781 67.69 458.079 68.79 459.707 69.538C461.335 70.286 463.095 70.66 464.987 70.66C466.747 70.66 468.463 70.352 470.135 69.736C471.851 69.076 473.259 68.108 474.359 66.832C475.503 65.512 476.075 63.884 476.075 61.948L475.019 57.988C475.019 59.484 474.645 60.804 473.897 61.948C473.193 63.048 472.247 63.884 471.059 64.456C469.915 65.028 468.639 65.314 467.231 65.314C466.131 65.314 465.141 65.138 464.261 64.786C463.425 64.434 462.765 63.906 462.281 63.202C461.797 62.454 461.555 61.574 461.555 60.562ZM459.311 47.56C459.751 47.252 460.411 46.878 461.291 46.438C462.215 45.954 463.293 45.558 464.525 45.25C465.801 44.898 467.143 44.722 468.551 44.722C469.475 44.722 470.333 44.81 471.125 44.986C471.917 45.162 472.599 45.448 473.171 45.844C473.743 46.24 474.183 46.746 474.491 47.362C474.843 47.978 475.019 48.77 475.019 49.738V70H482.015V48.352C482.015 46.328 481.465 44.634 480.365 43.27C479.265 41.862 477.747 40.784 475.811 40.036C473.919 39.288 471.719 38.914 469.211 38.914C466.395 38.914 463.887 39.31 461.687 40.102C459.531 40.894 457.771 41.708 456.407 42.544L459.311 47.56ZM486.101 39.64V45.91H503.327V39.64H486.101ZM491.183 29.08V70H498.245V29.08H491.183ZM515.568 58.12V39.64H508.242V58.912C508.242 62.52 509.144 65.38 510.948 67.492C512.796 69.604 515.414 70.66 518.802 70.66C520.914 70.66 522.718 70.22 524.214 69.34C525.754 68.416 527.008 67.074 527.976 65.314V70H535.104V39.64H527.976V58.12C527.976 59.484 527.69 60.694 527.118 61.75C526.546 62.762 525.754 63.554 524.742 64.126C523.73 64.654 522.542 64.918 521.178 64.918C519.286 64.918 517.878 64.324 516.954 63.136C516.03 61.948 515.568 60.276 515.568 58.12ZM545.593 60.034L541.435 64.192C542.315 65.336 543.393 66.436 544.669 67.492C545.989 68.504 547.507 69.34 549.223 70C550.983 70.616 552.897 70.924 554.965 70.924C558.309 70.924 560.949 70.066 562.885 68.35C564.865 66.59 565.855 64.28 565.855 61.42C565.855 59.572 565.415 58.076 564.535 56.932C563.699 55.788 562.577 54.82 561.169 54.028C559.761 53.236 558.221 52.51 556.549 51.85C555.317 51.366 554.195 50.904 553.183 50.464C552.215 50.024 551.423 49.54 550.807 49.012C550.235 48.44 549.949 47.802 549.949 47.098C549.949 46.262 550.279 45.624 550.939 45.184C551.599 44.744 552.435 44.524 553.447 44.524C554.943 44.524 556.395 44.898 557.803 45.646C559.211 46.394 560.421 47.362 561.433 48.55L565.393 44.326C564.557 43.314 563.545 42.412 562.357 41.62C561.169 40.828 559.827 40.19 558.331 39.706C556.879 39.222 555.317 38.98 553.645 38.98C551.797 38.98 550.059 39.288 548.431 39.904C546.847 40.476 545.571 41.378 544.603 42.61C543.679 43.842 543.217 45.382 543.217 47.23C543.217 49.034 543.635 50.53 544.471 51.718C545.351 52.906 546.451 53.874 547.771 54.622C549.135 55.326 550.499 55.942 551.863 56.47C553.227 56.954 554.415 57.438 555.427 57.922C556.439 58.362 557.231 58.912 557.803 59.572C558.375 60.188 558.661 60.936 558.661 61.816C558.661 62.828 558.287 63.62 557.539 64.192C556.835 64.764 555.845 65.05 554.569 65.05C553.557 65.05 552.545 64.874 551.533 64.522C550.521 64.126 549.509 63.554 548.497 62.806C547.529 62.014 546.561 61.09 545.593 60.034Z" fill="black"/>
<path d="M423.408 97.924L428.946 107.31L434.484 97.924L435.758 109H438.93L436.434 89.89L428.946 102.24L421.484 89.89L418.988 109H422.16L423.408 97.924ZM443.813 109H452.991V106.296H443.813V109ZM443.813 93.504H452.991V90.8H443.813V93.504ZM443.813 100.576H452.471V97.924H443.813V100.576ZM441.915 90.8V109H444.931V90.8H441.915ZM458.666 109H467.844V106.296H458.666V109ZM458.666 93.504H467.844V90.8H458.666V93.504ZM458.666 100.576H467.324V97.924H458.666V100.576ZM456.768 90.8V109H459.784V90.8H456.768ZM469.802 93.634H474.586V109H477.68V93.634H482.49V90.8H469.802V93.634ZM484.723 90.8V109H487.817V90.8H484.723ZM505.169 90.8V103.02L491.883 89.89V109H494.899V96.78L508.185 109.91V90.8H505.169ZM520.879 102.084H526.469C526.313 102.691 526.079 103.263 525.767 103.8C525.455 104.337 525.065 104.814 524.597 105.23C524.129 105.646 523.575 105.967 522.933 106.192C522.292 106.417 521.564 106.53 520.749 106.53C519.553 106.53 518.479 106.253 517.525 105.698C516.572 105.143 515.809 104.372 515.237 103.384C514.683 102.379 514.405 101.217 514.405 99.9C514.405 98.5653 514.691 97.4127 515.263 96.442C515.835 95.454 516.598 94.6913 517.551 94.154C518.505 93.5993 519.571 93.322 520.749 93.322C522.015 93.322 523.089 93.582 523.973 94.102C524.875 94.622 525.577 95.3153 526.079 96.182L528.575 94.518C528.038 93.6687 527.379 92.9493 526.599 92.36C525.837 91.7533 524.97 91.294 523.999 90.982C523.029 90.6527 521.945 90.488 520.749 90.488C519.38 90.488 518.106 90.7133 516.927 91.164C515.766 91.6147 514.752 92.2647 513.885 93.114C513.036 93.946 512.369 94.9427 511.883 96.104C511.415 97.248 511.181 98.5133 511.181 99.9C511.181 101.287 511.415 102.561 511.883 103.722C512.351 104.883 513.01 105.889 513.859 106.738C514.726 107.587 515.74 108.246 516.901 108.714C518.063 109.165 519.328 109.39 520.697 109.39C522.136 109.39 523.419 109.13 524.545 108.61C525.689 108.073 526.643 107.345 527.405 106.426C528.168 105.507 528.74 104.459 529.121 103.28C529.503 102.084 529.676 100.819 529.641 99.484H520.879V102.084ZM533.984 103.15L531.696 104.736C532.094 105.568 532.632 106.339 533.308 107.05C533.984 107.761 534.772 108.333 535.674 108.766C536.592 109.182 537.589 109.39 538.664 109.39C539.444 109.39 540.189 109.26 540.9 109C541.628 108.757 542.278 108.411 542.85 107.96C543.422 107.492 543.872 106.92 544.202 106.244C544.531 105.568 544.696 104.805 544.696 103.956C544.696 103.159 544.557 102.465 544.28 101.876C544.02 101.287 543.664 100.775 543.214 100.342C542.763 99.8913 542.26 99.5187 541.706 99.224C541.168 98.9293 540.631 98.6867 540.094 98.496C539.123 98.1493 538.334 97.8113 537.728 97.482C537.121 97.1527 536.67 96.806 536.376 96.442C536.098 96.0607 535.96 95.636 535.96 95.168C535.96 94.648 536.159 94.1973 536.558 93.816C536.956 93.4173 537.58 93.218 538.43 93.218C539.036 93.218 539.565 93.3393 540.016 93.582C540.484 93.8073 540.891 94.1193 541.238 94.518C541.584 94.8993 541.87 95.3153 542.096 95.766L544.592 94.362C544.28 93.7207 543.846 93.1053 543.292 92.516C542.754 91.9267 542.087 91.4413 541.29 91.06C540.492 90.6787 539.556 90.488 538.482 90.488C537.39 90.488 536.41 90.696 535.544 91.112C534.694 91.5107 534.018 92.0827 533.516 92.828C533.013 93.556 532.762 94.4053 532.762 95.376C532.762 96.2253 532.926 96.9533 533.256 97.56C533.585 98.1493 534.001 98.652 534.504 99.068C535.006 99.4667 535.535 99.8047 536.09 100.082C536.644 100.342 537.147 100.55 537.598 100.706C538.36 100.983 539.028 101.269 539.6 101.564C540.189 101.841 540.648 102.188 540.978 102.604C541.307 103.003 541.472 103.54 541.472 104.216C541.472 104.927 541.212 105.507 540.692 105.958C540.172 106.409 539.496 106.634 538.664 106.634C537.97 106.634 537.346 106.495 536.792 106.218C536.237 105.923 535.726 105.516 535.258 104.996C534.807 104.459 534.382 103.843 533.984 103.15Z" fill="black"/>
<path d="M717.425 578.796H738.083V571.8H717.425V578.796ZM717.425 597.144H737.423V590.346H717.425V597.144ZM712.607 571.8V618H720.263V571.8H712.607ZM757.633 618.66C761.153 618.66 764.167 617.978 766.675 616.614C769.183 615.25 771.229 613.204 772.813 610.476L766.675 607.968C765.707 609.596 764.497 610.806 763.045 611.598C761.593 612.39 759.899 612.786 757.963 612.786C756.115 612.786 754.531 612.39 753.211 611.598C751.935 610.806 750.967 609.662 750.307 608.166C749.647 606.626 749.317 604.756 749.317 602.556C749.361 600.356 749.713 598.508 750.373 597.012C751.033 595.516 752.001 594.372 753.277 593.58C754.553 592.788 756.093 592.392 757.897 592.392C759.393 592.392 760.691 592.722 761.791 593.382C762.935 594.042 763.815 594.966 764.431 596.154C765.091 597.342 765.421 598.75 765.421 600.378C765.421 600.686 765.333 601.082 765.157 601.566C765.025 602.006 764.893 602.358 764.761 602.622L766.939 599.586H746.347V604.47H773.011C773.055 604.294 773.077 604.008 773.077 603.612C773.121 603.216 773.143 602.842 773.143 602.49C773.143 599.234 772.527 596.462 771.295 594.174C770.107 591.842 768.391 590.06 766.147 588.828C763.903 587.596 761.175 586.98 757.963 586.98C754.751 586.98 751.957 587.64 749.581 588.96C747.205 590.236 745.357 592.062 744.037 594.438C742.761 596.814 742.123 599.608 742.123 602.82C742.123 605.988 742.761 608.76 744.037 611.136C745.313 613.512 747.117 615.36 749.449 616.68C751.825 618 754.553 618.66 757.633 618.66ZM793.147 618.66C796.667 618.66 799.681 617.978 802.189 616.614C804.697 615.25 806.743 613.204 808.327 610.476L802.189 607.968C801.221 609.596 800.011 610.806 798.559 611.598C797.107 612.39 795.413 612.786 793.477 612.786C791.629 612.786 790.045 612.39 788.725 611.598C787.449 610.806 786.481 609.662 785.821 608.166C785.161 606.626 784.831 604.756 784.831 602.556C784.875 600.356 785.227 598.508 785.887 597.012C786.547 595.516 787.515 594.372 788.791 593.58C790.067 592.788 791.607 592.392 793.411 592.392C794.907 592.392 796.205 592.722 797.305 593.382C798.449 594.042 799.329 594.966 799.945 596.154C800.605 597.342 800.935 598.75 800.935 600.378C800.935 600.686 800.847 601.082 800.671 601.566C800.539 602.006 800.407 602.358 800.275 602.622L802.453 599.586H781.861V604.47H808.525C808.569 604.294 808.591 604.008 808.591 603.612C808.635 603.216 808.657 602.842 808.657 602.49C808.657 599.234 808.041 596.462 806.809 594.174C805.621 591.842 803.905 590.06 801.661 588.828C799.417 587.596 796.689 586.98 793.477 586.98C790.265 586.98 787.471 587.64 785.095 588.96C782.719 590.236 780.871 592.062 779.551 594.438C778.275 596.814 777.637 599.608 777.637 602.82C777.637 605.988 778.275 608.76 779.551 611.136C780.827 613.512 782.631 615.36 784.963 616.68C787.339 618 790.067 618.66 793.147 618.66ZM838.296 566.52V618H845.49V566.52H838.296ZM813.15 602.82C813.15 606.12 813.832 608.958 815.196 611.334C816.56 613.71 818.364 615.536 820.608 616.812C822.896 618.044 825.338 618.66 827.934 618.66C830.486 618.66 832.708 618.022 834.6 616.746C836.536 615.47 838.054 613.644 839.154 611.268C840.298 608.892 840.87 606.076 840.87 602.82C840.87 599.52 840.298 596.704 839.154 594.372C838.054 591.996 836.536 590.17 834.6 588.894C832.708 587.618 830.486 586.98 827.934 586.98C825.338 586.98 822.896 587.618 820.608 588.894C818.364 590.126 816.56 591.93 815.196 594.306C813.832 596.638 813.15 599.476 813.15 602.82ZM820.542 602.82C820.542 600.796 820.96 599.058 821.796 597.606C822.632 596.154 823.732 595.054 825.096 594.306C826.504 593.558 828.022 593.184 829.65 593.184C831.014 593.184 832.356 593.558 833.676 594.306C835.04 595.054 836.14 596.154 836.976 597.606C837.856 599.014 838.296 600.752 838.296 602.82C838.296 604.888 837.856 606.648 836.976 608.1C836.14 609.508 835.04 610.586 833.676 611.334C832.356 612.082 831.014 612.456 829.65 612.456C828.022 612.456 826.504 612.082 825.096 611.334C823.732 610.586 822.632 609.486 821.796 608.034C820.96 606.582 820.542 604.844 820.542 602.82ZM861.255 566.52H854.061V618H861.255V566.52ZM886.401 602.82C886.401 599.476 885.719 596.638 884.355 594.306C882.991 591.93 881.187 590.126 878.943 588.894C876.699 587.618 874.257 586.98 871.617 586.98C869.109 586.98 866.865 587.618 864.885 588.894C862.949 590.17 861.431 591.996 860.331 594.372C859.231 596.704 858.681 599.52 858.681 602.82C858.681 606.076 859.231 608.892 860.331 611.268C861.431 613.644 862.949 615.47 864.885 616.746C866.865 618.022 869.109 618.66 871.617 618.66C874.257 618.66 876.699 618.044 878.943 616.812C881.187 615.536 882.991 613.71 884.355 611.334C885.719 608.958 886.401 606.12 886.401 602.82ZM879.009 602.82C879.009 604.844 878.591 606.582 877.755 608.034C876.919 609.486 875.797 610.586 874.389 611.334C873.025 612.082 871.507 612.456 869.835 612.456C868.471 612.456 867.129 612.082 865.809 611.334C864.489 610.586 863.389 609.508 862.509 608.1C861.673 606.648 861.255 604.888 861.255 602.82C861.255 600.752 861.673 599.014 862.509 597.606C863.389 596.154 864.489 595.054 865.809 594.306C867.129 593.558 868.471 593.184 869.835 593.184C871.507 593.184 873.025 593.558 874.389 594.306C875.797 595.054 876.919 596.154 877.755 597.606C878.591 599.058 879.009 600.796 879.009 602.82ZM897.679 608.562C897.679 607.594 897.899 606.78 898.339 606.12C898.823 605.46 899.527 604.954 900.451 604.602C901.375 604.206 902.585 604.008 904.081 604.008C905.797 604.008 907.425 604.228 908.965 604.668C910.505 605.108 911.957 605.812 913.321 606.78V603.15C912.925 602.666 912.243 602.138 911.275 601.566C910.307 600.95 909.075 600.422 907.579 599.982C906.127 599.542 904.389 599.322 902.365 599.322C898.581 599.322 895.655 600.202 893.587 601.962C891.519 603.678 890.485 606.01 890.485 608.958C890.485 611.026 890.969 612.786 891.937 614.238C892.905 615.69 894.203 616.79 895.831 617.538C897.459 618.286 899.219 618.66 901.111 618.66C902.871 618.66 904.587 618.352 906.259 617.736C907.975 617.076 909.383 616.108 910.483 614.832C911.627 613.512 912.199 611.884 912.199 609.948L911.143 605.988C911.143 607.484 910.769 608.804 910.021 609.948C909.317 611.048 908.371 611.884 907.183 612.456C906.039 613.028 904.763 613.314 903.355 613.314C902.255 613.314 901.265 613.138 900.385 612.786C899.549 612.434 898.889 611.906 898.405 611.202C897.921 610.454 897.679 609.574 897.679 608.562ZM895.435 595.56C895.875 595.252 896.535 594.878 897.415 594.438C898.339 593.954 899.417 593.558 900.649 593.25C901.925 592.898 903.267 592.722 904.675 592.722C905.599 592.722 906.457 592.81 907.249 592.986C908.041 593.162 908.723 593.448 909.295 593.844C909.867 594.24 910.307 594.746 910.615 595.362C910.967 595.978 911.143 596.77 911.143 597.738V618H918.139V596.352C918.139 594.328 917.589 592.634 916.489 591.27C915.389 589.862 913.871 588.784 911.935 588.036C910.043 587.288 907.843 586.914 905.335 586.914C902.519 586.914 900.011 587.31 897.811 588.102C895.655 588.894 893.895 589.708 892.531 590.544L895.435 595.56ZM931.201 602.82C931.201 600.928 931.619 599.256 932.455 597.804C933.291 596.352 934.413 595.208 935.821 594.372C937.273 593.536 938.879 593.118 940.639 593.118C942.047 593.118 943.411 593.338 944.731 593.778C946.051 594.218 947.217 594.834 948.229 595.626C949.285 596.374 950.055 597.254 950.539 598.266V590.412C949.483 589.356 948.053 588.52 946.249 587.904C944.445 587.288 942.465 586.98 940.309 586.98C937.185 586.98 934.369 587.662 931.861 589.026C929.397 590.346 927.439 592.194 925.987 594.57C924.579 596.946 923.875 599.696 923.875 602.82C923.875 605.9 924.579 608.65 925.987 611.07C927.439 613.446 929.397 615.316 931.861 616.68C934.369 618 937.185 618.66 940.309 618.66C942.465 618.66 944.445 618.352 946.249 617.736C948.053 617.12 949.483 616.284 950.539 615.228V607.374C950.055 608.342 949.307 609.222 948.295 610.014C947.283 610.806 946.117 611.422 944.797 611.862C943.477 612.302 942.091 612.522 940.639 612.522C938.879 612.522 937.273 612.104 935.821 611.268C934.413 610.432 933.291 609.31 932.455 607.902C931.619 606.45 931.201 604.756 931.201 602.82ZM958.153 566.52V618H965.149V566.52H958.153ZM976.303 587.64L963.169 600.18L977.689 618H986.335L971.947 600.18L985.015 587.64H976.303Z" fill="black"/>
<path d="M788.408 645.924L793.946 655.31L799.484 645.924L800.758 657H803.93L801.434 637.89L793.946 650.24L786.484 637.89L783.988 657H787.16L788.408 645.924ZM808.813 657H817.991V654.296H808.813V657ZM808.813 641.504H817.991V638.8H808.813V641.504ZM808.813 648.576H817.471V645.924H808.813V648.576ZM806.915 638.8V657H809.931V638.8H806.915ZM823.666 657H832.844V654.296H823.666V657ZM823.666 641.504H832.844V638.8H823.666V641.504ZM823.666 648.576H832.324V645.924H823.666V648.576ZM821.768 638.8V657H824.784V638.8H821.768ZM834.802 641.634H839.586V657H842.68V641.634H847.49V638.8H834.802V641.634ZM849.723 638.8V657H852.817V638.8H849.723ZM870.169 638.8V651.02L856.883 637.89V657H859.899V644.78L873.185 657.91V638.8H870.169ZM885.879 650.084H891.469C891.313 650.691 891.079 651.263 890.767 651.8C890.455 652.337 890.065 652.814 889.597 653.23C889.129 653.646 888.575 653.967 887.933 654.192C887.292 654.417 886.564 654.53 885.749 654.53C884.553 654.53 883.479 654.253 882.525 653.698C881.572 653.143 880.809 652.372 880.237 651.384C879.683 650.379 879.405 649.217 879.405 647.9C879.405 646.565 879.691 645.413 880.263 644.442C880.835 643.454 881.598 642.691 882.551 642.154C883.505 641.599 884.571 641.322 885.749 641.322C887.015 641.322 888.089 641.582 888.973 642.102C889.875 642.622 890.577 643.315 891.079 644.182L893.575 642.518C893.038 641.669 892.379 640.949 891.599 640.36C890.837 639.753 889.97 639.294 888.999 638.982C888.029 638.653 886.945 638.488 885.749 638.488C884.38 638.488 883.106 638.713 881.927 639.164C880.766 639.615 879.752 640.265 878.885 641.114C878.036 641.946 877.369 642.943 876.883 644.104C876.415 645.248 876.181 646.513 876.181 647.9C876.181 649.287 876.415 650.561 876.883 651.722C877.351 652.883 878.01 653.889 878.859 654.738C879.726 655.587 880.74 656.246 881.901 656.714C883.063 657.165 884.328 657.39 885.697 657.39C887.136 657.39 888.419 657.13 889.545 656.61C890.689 656.073 891.643 655.345 892.405 654.426C893.168 653.507 893.74 652.459 894.121 651.28C894.503 650.084 894.676 648.819 894.641 647.484H885.879V650.084ZM898.984 651.15L896.696 652.736C897.094 653.568 897.632 654.339 898.308 655.05C898.984 655.761 899.772 656.333 900.674 656.766C901.592 657.182 902.589 657.39 903.664 657.39C904.444 657.39 905.189 657.26 905.9 657C906.628 656.757 907.278 656.411 907.85 655.96C908.422 655.492 908.872 654.92 909.202 654.244C909.531 653.568 909.696 652.805 909.696 651.956C909.696 651.159 909.557 650.465 909.28 649.876C909.02 649.287 908.664 648.775 908.214 648.342C907.763 647.891 907.26 647.519 906.706 647.224C906.168 646.929 905.631 646.687 905.094 646.496C904.123 646.149 903.334 645.811 902.728 645.482C902.121 645.153 901.67 644.806 901.376 644.442C901.098 644.061 900.96 643.636 900.96 643.168C900.96 642.648 901.159 642.197 901.558 641.816C901.956 641.417 902.58 641.218 903.43 641.218C904.036 641.218 904.565 641.339 905.016 641.582C905.484 641.807 905.891 642.119 906.238 642.518C906.584 642.899 906.87 643.315 907.096 643.766L909.592 642.362C909.28 641.721 908.846 641.105 908.292 640.516C907.754 639.927 907.087 639.441 906.29 639.06C905.492 638.679 904.556 638.488 903.482 638.488C902.39 638.488 901.41 638.696 900.544 639.112C899.694 639.511 899.018 640.083 898.516 640.828C898.013 641.556 897.762 642.405 897.762 643.376C897.762 644.225 897.926 644.953 898.256 645.56C898.585 646.149 899.001 646.652 899.504 647.068C900.006 647.467 900.535 647.805 901.09 648.082C901.644 648.342 902.147 648.55 902.598 648.706C903.36 648.983 904.028 649.269 904.6 649.564C905.189 649.841 905.648 650.188 905.978 650.604C906.307 651.003 906.472 651.54 906.472 652.216C906.472 652.927 906.212 653.507 905.692 653.958C905.172 654.409 904.496 654.634 903.664 654.634C902.97 654.634 902.346 654.495 901.792 654.218C901.237 653.923 900.726 653.516 900.258 652.996C899.807 652.459 899.382 651.843 898.984 651.15Z" fill="black"/>
<path d="M5.17339 571.8V618H13.0934V571.8H5.17339ZM20.0894 618C24.7974 618 28.9334 617.054 32.4974 615.162C36.0614 613.226 38.8334 610.542 40.8134 607.11C42.8374 603.634 43.8494 599.564 43.8494 594.9C43.8494 590.236 42.8374 586.188 40.8134 582.756C38.8334 579.28 36.0614 576.596 32.4974 574.704C28.9334 572.768 24.7974 571.8 20.0894 571.8H9.99139V579.126H19.8914C22.1794 579.126 24.2914 579.456 26.2274 580.116C28.1634 580.776 29.8354 581.766 31.2434 583.086C32.6954 584.406 33.8174 586.056 34.6094 588.036C35.4454 590.016 35.8634 592.304 35.8634 594.9C35.8634 597.496 35.4454 599.784 34.6094 601.764C33.8174 603.744 32.6954 605.394 31.2434 606.714C29.8354 608.034 28.1634 609.024 26.2274 609.684C24.2914 610.344 22.1794 610.674 19.8914 610.674H9.99139V618H20.0894ZM64.0567 618.66C67.5767 618.66 70.5907 617.978 73.0987 616.614C75.6067 615.25 77.6527 613.204 79.2367 610.476L73.0987 607.968C72.1307 609.596 70.9207 610.806 69.4687 611.598C68.0167 612.39 66.3227 612.786 64.3867 612.786C62.5387 612.786 60.9547 612.39 59.6347 611.598C58.3587 610.806 57.3907 609.662 56.7307 608.166C56.0707 606.626 55.7407 604.756 55.7407 602.556C55.7847 600.356 56.1367 598.508 56.7967 597.012C57.4567 595.516 58.4247 594.372 59.7007 593.58C60.9767 592.788 62.5167 592.392 64.3207 592.392C65.8167 592.392 67.1147 592.722 68.2147 593.382C69.3587 594.042 70.2387 594.966 70.8547 596.154C71.5147 597.342 71.8447 598.75 71.8447 600.378C71.8447 600.686 71.7567 601.082 71.5807 601.566C71.4487 602.006 71.3167 602.358 71.1847 602.622L73.3627 599.586H52.7707V604.47H79.4347C79.4787 604.294 79.5007 604.008 79.5007 603.612C79.5447 603.216 79.5667 602.842 79.5667 602.49C79.5667 599.234 78.9507 596.462 77.7187 594.174C76.5307 591.842 74.8147 590.06 72.5707 588.828C70.3267 587.596 67.5987 586.98 64.3867 586.98C61.1747 586.98 58.3807 587.64 56.0047 588.96C53.6287 590.236 51.7807 592.062 50.4607 594.438C49.1847 596.814 48.5467 599.608 48.5467 602.82C48.5467 605.988 49.1847 608.76 50.4607 611.136C51.7367 613.512 53.5407 615.36 55.8727 616.68C58.2487 618 60.9767 618.66 64.0567 618.66ZM91.1224 602.82C91.1224 600.928 91.5404 599.256 92.3764 597.804C93.2124 596.352 94.3344 595.208 95.7424 594.372C97.1944 593.536 98.8004 593.118 100.56 593.118C101.968 593.118 103.332 593.338 104.652 593.778C105.972 594.218 107.138 594.834 108.15 595.626C109.206 596.374 109.976 597.254 110.46 598.266V590.412C109.404 589.356 107.974 588.52 106.17 587.904C104.366 587.288 102.386 586.98 100.23 586.98C97.1064 586.98 94.2904 587.662 91.7824 589.026C89.3184 590.346 87.3604 592.194 85.9084 594.57C84.5004 596.946 83.7964 599.696 83.7964 602.82C83.7964 605.9 84.5004 608.65 85.9084 611.07C87.3604 613.446 89.3184 615.316 91.7824 616.68C94.2904 618 97.1064 618.66 100.23 618.66C102.386 618.66 104.366 618.352 106.17 617.736C107.974 617.12 109.404 616.284 110.46 615.228V607.374C109.976 608.342 109.228 609.222 108.216 610.014C107.204 610.806 106.038 611.422 104.718 611.862C103.398 612.302 102.012 612.522 100.56 612.522C98.8004 612.522 97.1944 612.104 95.7424 611.268C94.3344 610.432 93.2124 609.31 92.3764 607.902C91.5404 606.45 91.1224 604.756 91.1224 602.82ZM118.075 575.562C118.075 576.75 118.515 577.784 119.395 578.664C120.319 579.5 121.375 579.918 122.563 579.918C123.839 579.918 124.895 579.5 125.731 578.664C126.611 577.784 127.051 576.75 127.051 575.562C127.051 574.33 126.611 573.296 125.731 572.46C124.895 571.624 123.839 571.206 122.563 571.206C121.375 571.206 120.319 571.624 119.395 572.46C118.515 573.296 118.075 574.33 118.075 575.562ZM119.065 587.64V618H126.061V587.64H119.065ZM137.256 608.034L133.098 612.192C133.978 613.336 135.056 614.436 136.332 615.492C137.652 616.504 139.17 617.34 140.886 618C142.646 618.616 144.56 618.924 146.628 618.924C149.972 618.924 152.612 618.066 154.548 616.35C156.528 614.59 157.518 612.28 157.518 609.42C157.518 607.572 157.078 606.076 156.198 604.932C155.362 603.788 154.24 602.82 152.832 602.028C151.424 601.236 149.884 600.51 148.212 599.85C146.98 599.366 145.858 598.904 144.846 598.464C143.878 598.024 143.086 597.54 142.47 597.012C141.898 596.44 141.612 595.802 141.612 595.098C141.612 594.262 141.942 593.624 142.602 593.184C143.262 592.744 144.098 592.524 145.11 592.524C146.606 592.524 148.058 592.898 149.466 593.646C150.874 594.394 152.084 595.362 153.096 596.55L157.056 592.326C156.22 591.314 155.208 590.412 154.02 589.62C152.832 588.828 151.49 588.19 149.994 587.706C148.542 587.222 146.98 586.98 145.308 586.98C143.46 586.98 141.722 587.288 140.094 587.904C138.51 588.476 137.234 589.378 136.266 590.61C135.342 591.842 134.88 593.382 134.88 595.23C134.88 597.034 135.298 598.53 136.134 599.718C137.014 600.906 138.114 601.874 139.434 602.622C140.798 603.326 142.162 603.942 143.526 604.47C144.89 604.954 146.078 605.438 147.09 605.922C148.102 606.362 148.894 606.912 149.466 607.572C150.038 608.188 150.324 608.936 150.324 609.816C150.324 610.828 149.95 611.62 149.202 612.192C148.498 612.764 147.508 613.05 146.232 613.05C145.22 613.05 144.208 612.874 143.196 612.522C142.184 612.126 141.172 611.554 140.16 610.806C139.192 610.014 138.224 609.09 137.256 608.034ZM163.579 575.562C163.579 576.75 164.019 577.784 164.899 578.664C165.823 579.5 166.879 579.918 168.067 579.918C169.343 579.918 170.399 579.5 171.235 578.664C172.115 577.784 172.555 576.75 172.555 575.562C172.555 574.33 172.115 573.296 171.235 572.46C170.399 571.624 169.343 571.206 168.067 571.206C166.879 571.206 165.823 571.624 164.899 572.46C164.019 573.296 163.579 574.33 163.579 575.562ZM164.569 587.64V618H171.565V587.64H164.569ZM179.064 602.82C179.064 605.9 179.768 608.65 181.176 611.07C182.628 613.446 184.586 615.316 187.05 616.68C189.514 618 192.308 618.66 195.432 618.66C198.556 618.66 201.328 618 203.748 616.68C206.212 615.316 208.17 613.446 209.622 611.07C211.074 608.65 211.8 605.9 211.8 602.82C211.8 599.696 211.074 596.946 209.622 594.57C208.17 592.194 206.212 590.346 203.748 589.026C201.328 587.662 198.556 586.98 195.432 586.98C192.308 586.98 189.514 587.662 187.05 589.026C184.586 590.346 182.628 592.194 181.176 594.57C179.768 596.946 179.064 599.696 179.064 602.82ZM186.39 602.82C186.39 600.928 186.786 599.256 187.578 597.804C188.37 596.352 189.448 595.23 190.812 594.438C192.176 593.646 193.716 593.25 195.432 593.25C197.104 593.25 198.622 593.646 199.986 594.438C201.394 595.23 202.494 596.352 203.286 597.804C204.078 599.256 204.474 600.928 204.474 602.82C204.474 604.712 204.078 606.384 203.286 607.836C202.494 609.244 201.394 610.366 199.986 611.202C198.622 611.994 197.104 612.39 195.432 612.39C193.716 612.39 192.176 611.994 190.812 611.202C189.448 610.366 188.37 609.244 187.578 607.836C186.786 606.384 186.39 604.712 186.39 602.82ZM238.1 599.52V618H245.426V598.728C245.426 595.076 244.524 592.216 242.72 590.148C240.916 588.036 238.298 586.98 234.866 586.98C232.754 586.98 230.928 587.42 229.388 588.3C227.892 589.18 226.66 590.522 225.692 592.326V587.64H218.564V618H225.692V599.52C225.692 598.156 225.978 596.968 226.55 595.956C227.122 594.9 227.914 594.108 228.926 593.58C229.938 593.008 231.104 592.722 232.424 592.722C234.36 592.722 235.79 593.294 236.714 594.438C237.638 595.582 238.1 597.276 238.1 599.52Z" fill="black"/>
<path d="M66.408 645.924L71.946 655.31L77.484 645.924L78.758 657H81.93L79.434 637.89L71.946 650.24L64.484 637.89L61.988 657H65.16L66.408 645.924ZM86.8127 657H95.9907V654.296H86.8127V657ZM86.8127 641.504H95.9907V638.8H86.8127V641.504ZM86.8127 648.576H95.4707V645.924H86.8127V648.576ZM84.9147 638.8V657H87.9307V638.8H84.9147ZM101.666 657H110.844V654.296H101.666V657ZM101.666 641.504H110.844V638.8H101.666V641.504ZM101.666 648.576H110.324V645.924H101.666V648.576ZM99.7682 638.8V657H102.784V638.8H99.7682ZM112.802 641.634H117.586V657H120.68V641.634H125.49V638.8H112.802V641.634ZM127.723 638.8V657H130.817V638.8H127.723ZM148.169 638.8V651.02L134.883 637.89V657H137.899V644.78L151.185 657.91V638.8H148.169ZM163.879 650.084H169.469C169.313 650.691 169.079 651.263 168.767 651.8C168.455 652.337 168.065 652.814 167.597 653.23C167.129 653.646 166.575 653.967 165.933 654.192C165.292 654.417 164.564 654.53 163.749 654.53C162.553 654.53 161.479 654.253 160.525 653.698C159.572 653.143 158.809 652.372 158.237 651.384C157.683 650.379 157.405 649.217 157.405 647.9C157.405 646.565 157.691 645.413 158.263 644.442C158.835 643.454 159.598 642.691 160.551 642.154C161.505 641.599 162.571 641.322 163.749 641.322C165.015 641.322 166.089 641.582 166.973 642.102C167.875 642.622 168.577 643.315 169.079 644.182L171.575 642.518C171.038 641.669 170.379 640.949 169.599 640.36C168.837 639.753 167.97 639.294 166.999 638.982C166.029 638.653 164.945 638.488 163.749 638.488C162.38 638.488 161.106 638.713 159.927 639.164C158.766 639.615 157.752 640.265 156.885 641.114C156.036 641.946 155.369 642.943 154.883 644.104C154.415 645.248 154.181 646.513 154.181 647.9C154.181 649.287 154.415 650.561 154.883 651.722C155.351 652.883 156.01 653.889 156.859 654.738C157.726 655.587 158.74 656.246 159.901 656.714C161.063 657.165 162.328 657.39 163.697 657.39C165.136 657.39 166.419 657.13 167.545 656.61C168.689 656.073 169.643 655.345 170.405 654.426C171.168 653.507 171.74 652.459 172.121 651.28C172.503 650.084 172.676 648.819 172.641 647.484H163.879V650.084ZM176.984 651.15L174.696 652.736C175.094 653.568 175.632 654.339 176.308 655.05C176.984 655.761 177.772 656.333 178.674 656.766C179.592 657.182 180.589 657.39 181.664 657.39C182.444 657.39 183.189 657.26 183.9 657C184.628 656.757 185.278 656.411 185.85 655.96C186.422 655.492 186.872 654.92 187.202 654.244C187.531 653.568 187.696 652.805 187.696 651.956C187.696 651.159 187.557 650.465 187.28 649.876C187.02 649.287 186.664 648.775 186.214 648.342C185.763 647.891 185.26 647.519 184.706 647.224C184.168 646.929 183.631 646.687 183.094 646.496C182.123 646.149 181.334 645.811 180.728 645.482C180.121 645.153 179.67 644.806 179.376 644.442C179.098 644.061 178.96 643.636 178.96 643.168C178.96 642.648 179.159 642.197 179.558 641.816C179.956 641.417 180.58 641.218 181.43 641.218C182.036 641.218 182.565 641.339 183.016 641.582C183.484 641.807 183.891 642.119 184.238 642.518C184.584 642.899 184.87 643.315 185.096 643.766L187.592 642.362C187.28 641.721 186.846 641.105 186.292 640.516C185.754 639.927 185.087 639.441 184.29 639.06C183.492 638.679 182.556 638.488 181.482 638.488C180.39 638.488 179.41 638.696 178.544 639.112C177.694 639.511 177.018 640.083 176.516 640.828C176.013 641.556 175.762 642.405 175.762 643.376C175.762 644.225 175.926 644.953 176.256 645.56C176.585 646.149 177.001 646.652 177.504 647.068C178.006 647.467 178.535 647.805 179.09 648.082C179.644 648.342 180.147 648.55 180.598 648.706C181.36 648.983 182.028 649.269 182.6 649.564C183.189 649.841 183.648 650.188 183.978 650.604C184.307 651.003 184.472 651.54 184.472 652.216C184.472 652.927 184.212 653.507 183.692 653.958C183.172 654.409 182.496 654.634 181.664 654.634C180.97 654.634 180.346 654.495 179.792 654.218C179.237 653.923 178.726 653.516 178.258 652.996C177.807 652.459 177.382 651.843 176.984 651.15Z" fill="black"/>
<path d="M279 618L294 626.66V609.34L279 618ZM374 616.5H292.5V619.5H374V616.5Z" fill="black"/>
<path d="M675 618H588" stroke="black" stroke-width="3"/>
<path d="M391.666 619.02C391.666 618.275 391.831 617.616 392.16 617.044C392.489 616.472 392.931 616.021 393.486 615.692C394.058 615.363 394.691 615.198 395.384 615.198C395.939 615.198 396.476 615.285 396.996 615.458C397.516 615.631 397.975 615.874 398.374 616.186C398.79 616.481 399.093 616.827 399.284 617.226V614.132C398.868 613.716 398.305 613.387 397.594 613.144C396.883 612.901 396.103 612.78 395.254 612.78C394.023 612.78 392.914 613.049 391.926 613.586C390.955 614.106 390.184 614.834 389.612 615.77C389.057 616.706 388.78 617.789 388.78 619.02C388.78 620.233 389.057 621.317 389.612 622.27C390.184 623.206 390.955 623.943 391.926 624.48C392.914 625 394.023 625.26 395.254 625.26C396.103 625.26 396.883 625.139 397.594 624.896C398.305 624.653 398.868 624.324 399.284 623.908V620.814C399.093 621.195 398.799 621.542 398.4 621.854C398.001 622.166 397.542 622.409 397.022 622.582C396.502 622.755 395.956 622.842 395.384 622.842C394.691 622.842 394.058 622.677 393.486 622.348C392.931 622.019 392.489 621.577 392.16 621.022C391.831 620.45 391.666 619.783 391.666 619.02ZM404.156 621.282C404.156 620.901 404.242 620.58 404.416 620.32C404.606 620.06 404.884 619.861 405.248 619.722C405.612 619.566 406.088 619.488 406.678 619.488C407.354 619.488 407.995 619.575 408.602 619.748C409.208 619.921 409.78 620.199 410.318 620.58V619.15C410.162 618.959 409.893 618.751 409.512 618.526C409.13 618.283 408.645 618.075 408.056 617.902C407.484 617.729 406.799 617.642 406.002 617.642C404.511 617.642 403.358 617.989 402.544 618.682C401.729 619.358 401.322 620.277 401.322 621.438C401.322 622.253 401.512 622.946 401.894 623.518C402.275 624.09 402.786 624.523 403.428 624.818C404.069 625.113 404.762 625.26 405.508 625.26C406.201 625.26 406.877 625.139 407.536 624.896C408.212 624.636 408.766 624.255 409.2 623.752C409.65 623.232 409.876 622.591 409.876 621.828L409.46 620.268C409.46 620.857 409.312 621.377 409.018 621.828C408.74 622.261 408.368 622.591 407.9 622.816C407.449 623.041 406.946 623.154 406.392 623.154C405.958 623.154 405.568 623.085 405.222 622.946C404.892 622.807 404.632 622.599 404.442 622.322C404.251 622.027 404.156 621.681 404.156 621.282ZM403.272 616.16C403.445 616.039 403.705 615.891 404.052 615.718C404.416 615.527 404.84 615.371 405.326 615.25C405.828 615.111 406.357 615.042 406.912 615.042C407.276 615.042 407.614 615.077 407.926 615.146C408.238 615.215 408.506 615.328 408.732 615.484C408.957 615.64 409.13 615.839 409.252 616.082C409.39 616.325 409.46 616.637 409.46 617.018V625H412.216V616.472C412.216 615.675 411.999 615.007 411.566 614.47C411.132 613.915 410.534 613.491 409.772 613.196C409.026 612.901 408.16 612.754 407.172 612.754C406.062 612.754 405.074 612.91 404.208 613.222C403.358 613.534 402.665 613.855 402.128 614.184L403.272 616.16ZM423.185 617.72V625H426.071V617.408C426.071 615.969 425.716 614.843 425.005 614.028C424.295 613.196 423.263 612.78 421.911 612.78C421.079 612.78 420.36 612.953 419.753 613.3C419.164 613.647 418.679 614.175 418.297 614.886V613.04H415.489V625H418.297V617.72C418.297 617.183 418.41 616.715 418.635 616.316C418.861 615.9 419.173 615.588 419.571 615.38C419.97 615.155 420.429 615.042 420.949 615.042C421.712 615.042 422.275 615.267 422.639 615.718C423.003 616.169 423.185 616.836 423.185 617.72ZM446.448 604.72V625H449.282V604.72H446.448ZM436.542 619.02C436.542 620.32 436.811 621.438 437.348 622.374C437.886 623.31 438.596 624.029 439.48 624.532C440.382 625.017 441.344 625.26 442.366 625.26C443.372 625.26 444.247 625.009 444.992 624.506C445.755 624.003 446.353 623.284 446.786 622.348C447.237 621.412 447.462 620.303 447.462 619.02C447.462 617.72 447.237 616.611 446.786 615.692C446.353 614.756 445.755 614.037 444.992 613.534C444.247 613.031 443.372 612.78 442.366 612.78C441.344 612.78 440.382 613.031 439.48 613.534C438.596 614.019 437.886 614.73 437.348 615.666C436.811 616.585 436.542 617.703 436.542 619.02ZM439.454 619.02C439.454 618.223 439.619 617.538 439.948 616.966C440.278 616.394 440.711 615.961 441.248 615.666C441.803 615.371 442.401 615.224 443.042 615.224C443.58 615.224 444.108 615.371 444.628 615.666C445.166 615.961 445.599 616.394 445.928 616.966C446.275 617.521 446.448 618.205 446.448 619.02C446.448 619.835 446.275 620.528 445.928 621.1C445.599 621.655 445.166 622.079 444.628 622.374C444.108 622.669 443.58 622.816 443.042 622.816C442.401 622.816 441.803 622.669 441.248 622.374C440.711 622.079 440.278 621.646 439.948 621.074C439.619 620.502 439.454 619.817 439.454 619.02ZM457.963 625.26C459.349 625.26 460.537 624.991 461.525 624.454C462.513 623.917 463.319 623.111 463.943 622.036L461.525 621.048C461.143 621.689 460.667 622.166 460.095 622.478C459.523 622.79 458.855 622.946 458.093 622.946C457.365 622.946 456.741 622.79 456.221 622.478C455.718 622.166 455.337 621.715 455.077 621.126C454.817 620.519 454.687 619.783 454.687 618.916C454.704 618.049 454.843 617.321 455.103 616.732C455.363 616.143 455.744 615.692 456.247 615.38C456.749 615.068 457.356 614.912 458.067 614.912C458.656 614.912 459.167 615.042 459.601 615.302C460.051 615.562 460.398 615.926 460.641 616.394C460.901 616.862 461.031 617.417 461.031 618.058C461.031 618.179 460.996 618.335 460.927 618.526C460.875 618.699 460.823 618.838 460.771 618.942L461.629 617.746H453.517V619.67H464.021C464.038 619.601 464.047 619.488 464.047 619.332C464.064 619.176 464.073 619.029 464.073 618.89C464.073 617.607 463.83 616.515 463.345 615.614C462.877 614.695 462.201 613.993 461.317 613.508C460.433 613.023 459.358 612.78 458.093 612.78C456.827 612.78 455.727 613.04 454.791 613.56C453.855 614.063 453.127 614.782 452.607 615.718C452.104 616.654 451.853 617.755 451.853 619.02C451.853 620.268 452.104 621.36 452.607 622.296C453.109 623.232 453.82 623.96 454.739 624.48C455.675 625 456.749 625.26 457.963 625.26ZM464.552 613.04L470.74 626.092L476.954 613.04H473.86L470.74 620.762L467.62 613.04H464.552ZM477.421 619.02C477.421 620.233 477.698 621.317 478.253 622.27C478.825 623.206 479.596 623.943 480.567 624.48C481.538 625 482.638 625.26 483.869 625.26C485.1 625.26 486.192 625 487.145 624.48C488.116 623.943 488.887 623.206 489.459 622.27C490.031 621.317 490.317 620.233 490.317 619.02C490.317 617.789 490.031 616.706 489.459 615.77C488.887 614.834 488.116 614.106 487.145 613.586C486.192 613.049 485.1 612.78 483.869 612.78C482.638 612.78 481.538 613.049 480.567 613.586C479.596 614.106 478.825 614.834 478.253 615.77C477.698 616.706 477.421 617.789 477.421 619.02ZM480.307 619.02C480.307 618.275 480.463 617.616 480.775 617.044C481.087 616.472 481.512 616.03 482.049 615.718C482.586 615.406 483.193 615.25 483.869 615.25C484.528 615.25 485.126 615.406 485.663 615.718C486.218 616.03 486.651 616.472 486.963 617.044C487.275 617.616 487.431 618.275 487.431 619.02C487.431 619.765 487.275 620.424 486.963 620.996C486.651 621.551 486.218 621.993 485.663 622.322C485.126 622.634 484.528 622.79 483.869 622.79C483.193 622.79 482.586 622.634 482.049 622.322C481.512 621.993 481.087 621.551 480.775 620.996C480.463 620.424 480.307 619.765 480.307 619.02ZM492.982 604.72V625H495.79V604.72H492.982ZM497.56 613.04L503.748 626.092L509.962 613.04H506.868L503.748 620.762L500.628 613.04H497.56ZM516.539 625.26C517.926 625.26 519.113 624.991 520.101 624.454C521.089 623.917 521.895 623.111 522.519 622.036L520.101 621.048C519.72 621.689 519.243 622.166 518.671 622.478C518.099 622.79 517.432 622.946 516.669 622.946C515.941 622.946 515.317 622.79 514.797 622.478C514.294 622.166 513.913 621.715 513.653 621.126C513.393 620.519 513.263 619.783 513.263 618.916C513.28 618.049 513.419 617.321 513.679 616.732C513.939 616.143 514.32 615.692 514.823 615.38C515.326 615.068 515.932 614.912 516.643 614.912C517.232 614.912 517.744 615.042 518.177 615.302C518.628 615.562 518.974 615.926 519.217 616.394C519.477 616.862 519.607 617.417 519.607 618.058C519.607 618.179 519.572 618.335 519.503 618.526C519.451 618.699 519.399 618.838 519.347 618.942L520.205 617.746H512.093V619.67H522.597C522.614 619.601 522.623 619.488 522.623 619.332C522.64 619.176 522.649 619.029 522.649 618.89C522.649 617.607 522.406 616.515 521.921 615.614C521.453 614.695 520.777 613.993 519.893 613.508C519.009 613.023 517.934 612.78 516.669 612.78C515.404 612.78 514.303 613.04 513.367 613.56C512.431 614.063 511.703 614.782 511.183 615.718C510.68 616.654 510.429 617.755 510.429 619.02C510.429 620.268 510.68 621.36 511.183 622.296C511.686 623.232 512.396 623.96 513.315 624.48C514.251 625 515.326 625.26 516.539 625.26ZM533.02 608.282C533.02 608.75 533.193 609.157 533.54 609.504C533.904 609.833 534.32 609.998 534.788 609.998C535.291 609.998 535.707 609.833 536.036 609.504C536.383 609.157 536.556 608.75 536.556 608.282C536.556 607.797 536.383 607.389 536.036 607.06C535.707 606.731 535.291 606.566 534.788 606.566C534.32 606.566 533.904 606.731 533.54 607.06C533.193 607.389 533.02 607.797 533.02 608.282ZM533.41 613.04V625H536.166V613.04H533.41ZM547.726 617.72V625H550.612V617.408C550.612 615.969 550.257 614.843 549.546 614.028C548.836 613.196 547.804 612.78 546.452 612.78C545.62 612.78 544.901 612.953 544.294 613.3C543.705 613.647 543.22 614.175 542.838 614.886V613.04H540.03V625H542.838V617.72C542.838 617.183 542.951 616.715 543.176 616.316C543.402 615.9 543.714 615.588 544.112 615.38C544.511 615.155 544.97 615.042 545.49 615.042C546.253 615.042 546.816 615.267 547.18 615.718C547.544 616.169 547.726 616.836 547.726 617.72ZM552.534 613.04V615.51H559.32V613.04H552.534ZM554.536 608.88V625H557.318V608.88H554.536ZM560.347 619.02C560.347 620.233 560.624 621.317 561.179 622.27C561.751 623.206 562.522 623.943 563.493 624.48C564.464 625 565.564 625.26 566.795 625.26C568.026 625.26 569.118 625 570.071 624.48C571.042 623.943 571.813 623.206 572.385 622.27C572.957 621.317 573.243 620.233 573.243 619.02C573.243 617.789 572.957 616.706 572.385 615.77C571.813 614.834 571.042 614.106 570.071 613.586C569.118 613.049 568.026 612.78 566.795 612.78C565.564 612.78 564.464 613.049 563.493 613.586C562.522 614.106 561.751 614.834 561.179 615.77C560.624 616.706 560.347 617.789 560.347 619.02ZM563.233 619.02C563.233 618.275 563.389 617.616 563.701 617.044C564.013 616.472 564.438 616.03 564.975 615.718C565.512 615.406 566.119 615.25 566.795 615.25C567.454 615.25 568.052 615.406 568.589 615.718C569.144 616.03 569.577 616.472 569.889 617.044C570.201 617.616 570.357 618.275 570.357 619.02C570.357 619.765 570.201 620.424 569.889 620.996C569.577 621.551 569.144 621.993 568.589 622.322C568.052 622.634 567.454 622.79 566.795 622.79C566.119 622.79 565.512 622.634 564.975 622.322C564.438 621.993 564.013 621.551 563.701 620.996C563.389 620.424 563.233 619.765 563.233 619.02Z" fill="black"/>
<path d="M635.957 252.185C636.602 251.812 637.255 251.625 637.915 251.625C638.575 251.624 639.186 251.781 639.749 252.097C640.32 252.428 640.779 252.893 641.126 253.494C641.403 253.974 641.597 254.483 641.707 255.02C641.817 255.557 641.836 256.076 641.765 256.577C641.718 257.085 641.569 257.521 641.319 257.885L643.999 256.338C644.151 255.77 644.155 255.117 644.01 254.381C643.864 253.644 643.58 252.908 643.155 252.172C642.54 251.106 641.752 250.28 640.793 249.693C639.857 249.112 638.841 248.808 637.744 248.781C636.656 248.769 635.58 249.07 634.514 249.685C633.463 250.292 632.664 251.074 632.115 252.031C631.591 252.994 631.338 254.031 631.358 255.14C631.402 256.256 631.732 257.346 632.347 258.412C632.772 259.148 633.267 259.763 633.832 260.257C634.398 260.751 634.964 261.074 635.533 261.226L638.212 259.679C637.787 259.705 637.339 259.623 636.87 259.434C636.4 259.244 635.96 258.968 635.55 258.604C635.14 258.241 634.792 257.811 634.506 257.316C634.159 256.715 633.986 256.085 633.985 255.425C633.993 254.78 634.154 254.176 634.47 253.614C634.801 253.042 635.296 252.566 635.957 252.185ZM640.243 264.132C640.573 263.942 640.894 263.856 641.206 263.876C641.526 263.912 641.838 264.052 642.14 264.298C642.457 264.535 642.763 264.909 643.057 265.419C643.395 266.005 643.641 266.604 643.794 267.216C643.947 267.828 643.993 268.462 643.932 269.118L645.17 268.403C645.257 268.172 645.303 267.836 645.308 267.393C645.327 266.941 645.264 266.417 645.12 265.82C644.984 265.238 644.717 264.601 644.318 263.911C643.573 262.62 642.696 261.795 641.688 261.436C640.696 261.069 639.696 261.175 638.691 261.756C637.985 262.163 637.48 262.675 637.175 263.291C636.871 263.908 636.751 264.567 636.817 265.27C636.882 265.973 637.101 266.647 637.474 267.292C637.82 267.893 638.263 268.417 638.803 268.866C639.366 269.322 639.974 269.612 640.626 269.736C641.301 269.866 641.969 269.74 642.63 269.359L643.773 268.219C643.263 268.513 642.739 268.646 642.201 268.616C641.687 268.592 641.215 268.434 640.786 268.142C640.366 267.864 640.017 267.485 639.74 267.005C639.523 266.629 639.388 266.257 639.335 265.887C639.29 265.533 639.34 265.204 639.485 264.9C639.645 264.588 639.898 264.332 640.243 264.132ZM644.237 260.806C644.428 260.895 644.686 261.047 645.009 261.26C645.356 261.48 645.704 261.77 646.052 262.13C646.423 262.496 646.747 262.919 647.025 263.399C647.207 263.714 647.346 264.024 647.442 264.329C647.538 264.634 647.574 264.923 647.552 265.196C647.53 265.469 647.444 265.719 647.294 265.946C647.153 266.187 646.918 266.403 646.588 266.594L639.675 270.585L641.053 272.971L648.438 268.707C649.129 268.309 649.598 267.787 649.847 267.144C650.111 266.491 650.18 265.761 650.053 264.953C649.936 264.16 649.63 263.336 649.136 262.48C648.582 261.52 647.952 260.742 647.249 260.147C646.554 259.568 645.93 259.128 645.376 258.827L644.237 260.806ZM652.842 278.831L646.538 282.471L647.981 284.971L654.556 281.175C655.801 280.455 656.6 279.584 656.95 278.562C657.315 277.53 657.16 276.429 656.484 275.258C656.068 274.538 655.558 274.001 654.954 273.649C654.359 273.312 653.659 273.156 652.853 273.181L654.451 272.258L653.047 269.826L642.69 275.806L644.094 278.238L650.398 274.598C650.864 274.33 651.325 274.193 651.783 274.189C652.256 274.176 652.682 274.29 653.062 274.532C653.456 274.764 653.784 275.106 654.044 275.556C654.425 276.216 654.511 276.817 654.303 277.358C654.095 277.898 653.608 278.389 652.842 278.831ZM675.732 292.478L658.169 302.618L659.586 305.072L677.149 294.932L675.732 292.478ZM658.395 291.049C657.269 291.699 656.435 292.49 655.893 293.424C655.351 294.357 655.084 295.332 655.09 296.349C655.121 297.372 655.392 298.327 655.903 299.213C656.406 300.083 657.061 300.716 657.869 301.11C658.686 301.519 659.608 301.677 660.635 301.584C661.671 301.507 662.744 301.147 663.855 300.506C664.981 299.856 665.829 299.106 666.399 298.256C666.993 297.413 667.317 296.536 667.371 295.624C667.434 294.727 667.214 293.843 666.711 292.973C666.2 292.087 665.501 291.379 664.615 290.85C663.753 290.327 662.782 290.067 661.703 290.07C660.638 290.064 659.536 290.39 658.395 291.049ZM659.851 293.571C660.541 293.172 661.217 292.972 661.877 292.971C662.537 292.971 663.129 293.129 663.653 293.447C664.185 293.78 664.612 294.225 664.932 294.78C665.201 295.245 665.338 295.777 665.343 296.374C665.356 296.987 665.197 297.579 664.867 298.15C664.56 298.728 664.053 299.22 663.348 299.628C662.642 300.035 661.955 300.232 661.287 300.217C660.642 300.209 660.057 300.046 659.533 299.728C659.018 299.425 658.626 299.041 658.358 298.576C658.037 298.021 657.865 297.429 657.843 296.801C657.83 296.189 657.988 295.597 658.319 295.025C658.65 294.454 659.16 293.969 659.851 293.571ZM663.701 312.72C664.395 313.92 665.221 314.814 666.18 315.401C667.14 315.988 668.241 316.283 669.483 316.286L669.13 313.698C668.384 313.689 667.733 313.514 667.177 313.175C666.62 312.836 666.152 312.336 665.77 311.675C665.406 311.045 665.229 310.426 665.24 309.82C665.258 309.229 665.458 308.673 665.838 308.153C666.234 307.625 666.807 307.144 667.557 306.71C668.317 306.292 669.016 306.048 669.657 305.979C670.297 305.909 670.878 306.014 671.4 306.293C671.921 306.573 672.36 307.02 672.715 307.636C673.01 308.146 673.153 308.654 673.144 309.159C673.144 309.679 673.002 310.162 672.718 310.606C672.443 311.065 672.028 311.455 671.472 311.775C671.367 311.836 671.215 311.884 671.015 311.919C670.839 311.961 670.693 311.985 670.577 311.992L672.042 312.137L667.986 305.112L666.319 306.074L671.571 315.171C671.64 315.151 671.742 315.102 671.877 315.024C672.021 314.961 672.153 314.895 672.273 314.826C673.384 314.185 674.208 313.428 674.746 312.557C675.307 311.693 675.577 310.756 675.556 309.748C675.534 308.74 675.207 307.688 674.574 306.592C673.942 305.496 673.166 304.673 672.248 304.122C671.344 303.563 670.357 303.292 669.287 303.31C668.225 303.343 667.146 303.675 666.05 304.308C664.969 304.932 664.149 305.696 663.59 306.599C663.031 307.502 662.756 308.482 662.765 309.537C662.782 310.608 663.095 311.669 663.701 312.72ZM677.579 312.316L669.369 324.201L683.78 323.057L682.233 320.377L673.985 321.536L679.113 314.973L677.579 312.316ZM678.834 326.451C677.784 327.058 676.984 327.839 676.436 328.796C675.911 329.76 675.659 330.796 675.679 331.905C675.714 333.006 676.039 334.089 676.654 335.155C677.27 336.221 678.041 337.037 678.968 337.602C679.919 338.174 680.942 338.474 682.039 338.501C683.15 338.52 684.232 338.226 685.282 337.619C686.348 337.004 687.143 336.215 687.668 335.251C688.193 334.288 688.437 333.256 688.402 332.155C688.391 331.061 688.078 329.981 687.462 328.915C686.847 327.849 686.064 327.03 685.113 326.458C684.178 325.878 683.162 325.574 682.065 325.546C680.977 325.534 679.9 325.836 678.834 326.451ZM680.277 328.95C680.923 328.578 681.571 328.383 682.223 328.368C682.874 328.352 683.469 328.499 684.008 328.808C684.547 329.117 684.985 329.565 685.323 330.15C685.653 330.721 685.817 331.316 685.815 331.938C685.822 332.574 685.656 333.17 685.317 333.727C684.977 334.283 684.485 334.747 683.839 335.12C683.194 335.493 682.545 335.687 681.894 335.703C681.258 335.71 680.658 335.555 680.096 335.24C679.557 334.93 679.123 334.491 678.793 333.92C678.455 333.335 678.287 332.731 678.289 332.11C678.305 331.48 678.476 330.891 678.8 330.344C679.139 329.787 679.632 329.323 680.277 328.95ZM698.999 332.777L681.436 342.917L682.84 345.348L700.403 335.208L698.999 332.777ZM694.083 340.902L685.873 352.787L700.284 351.642L698.737 348.963L690.489 350.122L695.617 343.559L694.083 340.902ZM692.989 363.448C693.683 364.649 694.509 365.543 695.468 366.13C696.428 366.717 697.529 367.012 698.771 367.015L698.418 364.427C697.672 364.417 697.021 364.243 696.465 363.903C695.908 363.564 695.44 363.064 695.058 362.404C694.694 361.773 694.517 361.155 694.528 360.548C694.546 359.957 694.746 359.401 695.126 358.882C695.522 358.353 696.095 357.872 696.845 357.439C697.605 357.021 698.304 356.777 698.945 356.707C699.585 356.638 700.166 356.743 700.688 357.022C701.209 357.301 701.648 357.749 702.003 358.364C702.298 358.874 702.441 359.382 702.432 359.888C702.432 360.408 702.29 360.89 702.006 361.334C701.731 361.793 701.316 362.183 700.76 362.504C700.655 362.565 700.503 362.613 700.303 362.648C700.127 362.69 699.981 362.714 699.865 362.721L701.33 362.866L697.274 355.841L695.607 356.803L700.859 365.899C700.928 365.88 701.03 365.831 701.165 365.753C701.309 365.69 701.441 365.624 701.561 365.554C702.672 364.913 703.496 364.157 704.034 363.286C704.596 362.421 704.866 361.485 704.844 360.477C704.822 359.468 704.495 358.416 703.862 357.321C703.23 356.225 702.454 355.402 701.536 354.851C700.632 354.292 699.646 354.021 698.575 354.039C697.513 354.071 696.434 354.404 695.338 355.037C694.258 355.661 693.437 356.424 692.878 357.328C692.319 358.231 692.044 359.21 692.053 360.266C692.07 361.337 692.383 362.397 692.989 363.448ZM715.933 369.232C715.528 369.466 715.262 369.82 715.135 370.293C715.032 370.773 715.097 371.216 715.331 371.621C715.582 372.057 715.933 372.334 716.383 372.455C716.857 372.582 717.296 372.528 717.701 372.294C718.122 372.052 718.388 371.698 718.5 371.233C718.62 370.783 718.555 370.341 718.303 369.905C718.069 369.5 717.719 369.222 717.252 369.071C716.793 368.936 716.354 368.989 715.933 369.232ZM712.008 371.949L701.65 377.929L703.028 380.316L713.386 374.336L712.008 371.949ZM715.113 386.687L708.808 390.327L710.251 392.826L716.826 389.03C718.072 388.311 718.87 387.44 719.22 386.417C719.585 385.386 719.43 384.285 718.754 383.114C718.338 382.393 717.828 381.857 717.225 381.505C716.63 381.168 715.929 381.012 715.123 381.037L716.722 380.114L715.318 377.682L704.96 383.662L706.364 386.094L712.669 382.454C713.134 382.185 713.596 382.049 714.054 382.045C714.527 382.032 714.953 382.146 715.332 382.387C715.727 382.62 716.054 382.961 716.314 383.412C716.695 384.072 716.782 384.673 716.574 385.213C716.365 385.754 715.878 386.245 715.113 386.687ZM721.57 388.511L719.431 389.746L722.824 395.623L724.963 394.388L721.57 388.511ZM726.173 388.165L712.213 396.225L713.604 398.634L727.564 390.574L726.173 388.165ZM720.297 398.267C719.247 398.873 718.447 399.655 717.899 400.612C717.374 401.576 717.122 402.612 717.142 403.721C717.177 404.822 717.502 405.905 718.117 406.971C718.733 408.037 719.504 408.852 720.431 409.418C721.381 409.99 722.405 410.29 723.502 410.317C724.613 410.336 725.695 410.042 726.745 409.435C727.811 408.82 728.606 408.03 729.131 407.067C729.655 406.104 729.9 405.072 729.865 403.971C729.854 402.877 729.541 401.797 728.925 400.731C728.31 399.665 727.527 398.846 726.576 398.274C725.641 397.694 724.624 397.39 723.528 397.362C722.44 397.35 721.363 397.651 720.297 398.267ZM721.74 400.766C722.386 400.393 723.034 400.199 723.686 400.183C724.337 400.168 724.932 400.314 725.471 400.624C726.01 400.933 726.448 401.38 726.786 401.966C727.116 402.536 727.279 403.132 727.278 403.754C727.285 404.39 727.119 404.986 726.78 405.542C726.44 406.099 725.948 406.563 725.302 406.936C724.657 407.308 724.008 407.503 723.357 407.518C722.721 407.526 722.121 407.371 721.559 407.056C721.02 406.746 720.586 406.306 720.256 405.736C719.918 405.15 719.75 404.547 719.752 403.926C719.768 403.296 719.939 402.707 720.263 402.159C720.602 401.603 721.095 401.139 721.74 400.766Z" fill="black"/>
<path fill-rule="evenodd" clip-rule="evenodd" d="M806.285 536L805.962 518.682L799.829 522.378L735.143 415.01L732.545 416.51L797.259 523.926L791.126 527.621L806.285 536ZM627.611 242.337L630.209 240.836L563.57 130.226L561 131.774L627.611 242.337Z" fill="black"/>
<path d="M236.783 414.874C236.138 414.501 235.65 414.029 235.319 413.458C234.989 412.887 234.819 412.279 234.811 411.634C234.812 410.974 234.986 410.343 235.333 409.743C235.61 409.263 235.954 408.841 236.364 408.477C236.774 408.113 237.214 407.837 237.683 407.648C238.146 407.435 238.598 407.345 239.039 407.38L236.359 405.833C235.791 405.985 235.224 406.308 234.659 406.802C234.093 407.296 233.598 407.911 233.173 408.647C232.558 409.712 232.236 410.807 232.208 411.932C232.173 413.032 232.417 414.064 232.942 415.028C233.475 415.976 234.275 416.758 235.34 417.373C236.391 417.98 237.468 418.281 238.571 418.278C239.668 418.25 240.691 417.951 241.642 417.379C242.586 416.783 243.366 415.952 243.981 414.887C244.406 414.151 244.691 413.415 244.836 412.678C244.981 411.941 244.978 411.289 244.826 410.721L242.146 409.174C242.381 409.529 242.534 409.958 242.605 410.459C242.676 410.96 242.656 411.479 242.546 412.016C242.436 412.553 242.238 413.07 241.952 413.565C241.606 414.165 241.147 414.631 240.576 414.962C240.013 415.277 239.409 415.439 238.764 415.447C238.104 415.446 237.444 415.255 236.783 414.874ZM244.987 405.188C244.657 404.998 244.423 404.762 244.284 404.482C244.154 404.187 244.12 403.847 244.182 403.463C244.229 403.07 244.4 402.618 244.695 402.107C245.033 401.522 245.428 401.01 245.882 400.571C246.335 400.132 246.861 399.776 247.46 399.501L246.222 398.786C245.979 398.826 245.664 398.954 245.279 399.172C244.878 399.381 244.455 399.697 244.01 400.121C243.574 400.53 243.157 401.079 242.758 401.77C242.013 403.061 241.737 404.232 241.93 405.284C242.108 406.328 242.7 407.14 243.705 407.721C244.411 408.128 245.107 408.31 245.793 408.265C246.479 408.221 247.11 407.995 247.686 407.587C248.261 407.179 248.736 406.652 249.108 406.007C249.455 405.406 249.688 404.76 249.807 404.068C249.92 403.353 249.867 402.682 249.648 402.055C249.423 401.405 248.981 400.889 248.32 400.508L246.761 400.088C247.272 400.383 247.648 400.77 247.891 401.251C248.128 401.708 248.227 402.195 248.188 402.713C248.158 403.216 248.004 403.708 247.727 404.188C247.51 404.563 247.255 404.866 246.961 405.097C246.677 405.313 246.366 405.434 246.031 405.461C245.68 405.479 245.333 405.388 244.987 405.188ZM240.11 403.393C240.091 403.182 240.094 402.883 240.117 402.497C240.134 402.086 240.211 401.64 240.348 401.159C240.48 400.655 240.684 400.162 240.961 399.682C241.143 399.366 241.342 399.091 241.558 398.856C241.774 398.62 242.006 398.444 242.254 398.327C242.502 398.209 242.761 398.159 243.032 398.175C243.311 398.176 243.616 398.272 243.947 398.463L250.859 402.454L252.237 400.067L244.852 395.803C244.161 395.405 243.475 395.259 242.793 395.365C242.096 395.463 241.429 395.769 240.793 396.282C240.165 396.78 239.604 397.457 239.11 398.313C238.555 399.273 238.196 400.207 238.033 401.113C237.879 402.005 237.81 402.766 237.826 403.396L240.11 403.393ZM251.417 386.927L257.722 390.567L259.165 388.068L252.59 384.272C251.344 383.553 250.191 383.297 249.13 383.505C248.054 383.705 247.178 384.39 246.502 385.561C246.086 386.281 245.877 386.991 245.873 387.69C245.879 388.373 246.094 389.058 246.519 389.744L244.92 388.821L243.516 391.252L253.874 397.232L255.278 394.801L248.973 391.161C248.508 390.892 248.159 390.56 247.926 390.166C247.679 389.763 247.565 389.336 247.584 388.887C247.588 388.429 247.72 387.975 247.98 387.525C248.361 386.864 248.838 386.489 249.411 386.399C249.983 386.309 250.652 386.485 251.417 386.927ZM251.79 360.281L269.353 370.421L270.77 367.967L253.207 357.827L251.79 360.281ZM259.222 376.01C260.347 376.66 261.45 376.986 262.529 376.989C263.609 376.992 264.587 376.736 265.464 376.222C266.335 375.684 267.026 374.972 267.538 374.086C268.04 373.216 268.26 372.332 268.198 371.435C268.144 370.523 267.82 369.646 267.226 368.802C266.64 367.944 265.792 367.194 264.682 366.553C263.556 365.903 262.482 365.543 261.461 365.474C260.434 365.382 259.512 365.54 258.696 365.949C257.888 366.343 257.232 366.976 256.73 367.846C256.218 368.732 255.955 369.691 255.94 370.723C255.918 371.731 256.178 372.702 256.72 373.635C257.247 374.56 258.081 375.351 259.222 376.01ZM260.678 373.488C259.987 373.089 259.476 372.605 259.146 372.033C258.815 371.462 258.656 370.87 258.67 370.257C258.692 369.63 258.863 369.038 259.184 368.483C259.453 368.017 259.845 367.633 260.36 367.33C260.884 367.012 261.476 366.854 262.136 366.854C262.789 366.832 263.469 367.024 264.175 367.431C264.88 367.838 265.394 368.335 265.716 368.921C266.032 369.484 266.183 370.072 266.169 370.684C266.164 371.282 266.028 371.813 265.759 372.279C265.438 372.834 265.012 373.278 264.479 373.611C263.955 373.929 263.363 374.088 262.703 374.087C262.043 374.087 261.368 373.887 260.678 373.488ZM275.336 360.579C276.029 359.378 276.39 358.216 276.419 357.091C276.448 355.967 276.152 354.866 275.534 353.788L273.469 355.388C273.834 356.039 274.008 356.691 273.993 357.342C273.977 357.993 273.778 358.649 273.397 359.31C273.033 359.94 272.586 360.403 272.056 360.697C271.534 360.976 270.953 361.081 270.313 361.012C269.657 360.933 268.954 360.678 268.204 360.244C267.462 359.796 266.901 359.312 266.52 358.792C266.14 358.272 265.94 357.717 265.922 357.125C265.903 356.534 266.071 355.931 266.426 355.315C266.721 354.805 267.089 354.427 267.531 354.182C267.981 353.921 268.47 353.803 268.997 353.827C269.532 353.836 270.077 354.001 270.633 354.321C270.738 354.382 270.856 354.49 270.986 354.645C271.11 354.777 271.204 354.891 271.268 354.988L270.662 353.647L266.606 360.673L268.272 361.635L273.524 352.538C273.472 352.488 273.379 352.424 273.244 352.346C273.118 352.253 272.994 352.172 272.874 352.103C271.763 351.461 270.696 351.126 269.673 351.095C268.644 351.041 267.698 351.276 266.835 351.799C265.973 352.321 265.226 353.131 264.593 354.227C263.96 355.322 263.635 356.406 263.617 357.476C263.585 358.538 263.844 359.528 264.394 360.447C264.954 361.35 265.781 362.118 266.877 362.751C267.958 363.375 269.029 363.703 270.091 363.736C271.153 363.768 272.139 363.517 273.048 362.981C273.967 362.431 274.729 361.63 275.336 360.579ZM268.048 348.763L282.445 349.93L274.249 338.022L272.702 340.702L277.829 347.265L269.582 346.106L268.048 348.763ZM279.661 340.608C280.712 341.214 281.789 341.516 282.892 341.512C283.988 341.485 285.012 341.185 285.963 340.613C286.898 340.033 287.674 339.209 288.289 338.144C288.904 337.078 289.225 336.002 289.252 334.917C289.272 333.807 289.019 332.771 288.495 331.808C287.955 330.836 287.16 330.046 286.109 329.44C285.043 328.824 283.962 328.53 282.865 328.558C281.769 328.585 280.753 328.889 279.817 329.47C278.875 330.027 278.096 330.838 277.481 331.904C276.866 332.969 276.548 334.057 276.528 335.166C276.493 336.267 276.738 337.299 277.262 338.262C277.796 339.211 278.595 339.992 279.661 340.608ZM281.104 338.108C280.459 337.736 279.966 337.271 279.627 336.715C279.287 336.159 279.117 335.57 279.115 334.949C279.114 334.327 279.282 333.724 279.62 333.139C279.949 332.568 280.384 332.128 280.922 331.819C281.47 331.495 282.069 331.34 282.721 331.356C283.372 331.372 284.021 331.566 284.666 331.939C285.312 332.312 285.804 332.776 286.143 333.332C286.468 333.88 286.634 334.476 286.642 335.121C286.643 335.742 286.479 336.338 286.15 336.909C285.812 337.494 285.374 337.941 284.835 338.251C284.281 338.552 283.686 338.698 283.049 338.691C282.398 338.675 281.75 338.481 281.104 338.108ZM275.057 319.982L292.62 330.122L294.024 327.69L276.461 317.55L275.057 319.982ZM284.552 320.177L298.949 321.344L290.753 309.437L289.206 312.116L294.333 318.679L286.086 317.52L284.552 320.177ZM304.624 309.851C305.317 308.65 305.678 307.487 305.707 306.363C305.736 305.239 305.441 304.138 304.822 303.06L302.757 304.66C303.122 305.311 303.296 305.962 303.281 306.613C303.265 307.265 303.066 307.921 302.685 308.581C302.321 309.212 301.874 309.674 301.344 309.968C300.822 310.248 300.241 310.353 299.601 310.283C298.945 310.205 298.242 309.949 297.492 309.516C296.75 309.068 296.189 308.583 295.808 308.064C295.428 307.544 295.228 306.988 295.21 306.397C295.191 305.806 295.359 305.202 295.714 304.587C296.009 304.076 296.377 303.699 296.819 303.453C297.27 303.193 297.758 303.075 298.285 303.099C298.82 303.107 299.365 303.272 299.921 303.593C300.026 303.653 300.144 303.762 300.274 303.917C300.398 304.049 300.492 304.163 300.556 304.26L299.95 302.919L295.894 309.944L297.56 310.906L302.812 301.809C302.76 301.76 302.667 301.696 302.532 301.618C302.406 301.525 302.282 301.444 302.162 301.374C301.052 300.733 299.985 300.397 298.961 300.367C297.932 300.313 296.986 300.547 296.123 301.07C295.261 301.593 294.514 302.402 293.881 303.498C293.248 304.594 292.923 305.677 292.905 306.748C292.873 307.81 293.132 308.8 293.682 309.718C294.242 310.622 295.069 311.39 296.165 312.022C297.246 312.646 298.317 312.975 299.379 313.007C300.441 313.04 301.427 312.788 302.336 312.253C303.255 311.702 304.017 310.902 304.624 309.851ZM298.161 287.089C298.566 287.323 299.006 287.376 299.479 287.249C299.947 287.099 300.297 286.821 300.531 286.416C300.783 285.98 300.848 285.538 300.727 285.088C300.601 284.614 300.334 284.26 299.929 284.026C299.509 283.784 299.069 283.73 298.611 283.866C298.161 283.986 297.81 284.264 297.559 284.7C297.325 285.105 297.26 285.547 297.363 286.027C297.475 286.492 297.741 286.846 298.161 287.089ZM302.477 289.13L312.834 295.11L314.212 292.723L303.855 286.743L302.477 289.13ZM313.688 279.072L319.992 282.712L321.435 280.212L314.861 276.416C313.615 275.697 312.461 275.441 311.4 275.65C310.325 275.849 309.449 276.534 308.773 277.705C308.357 278.426 308.147 279.135 308.144 279.834C308.15 280.518 308.365 281.202 308.79 281.888L307.191 280.965L305.787 283.397L316.144 289.377L317.548 286.945L311.244 283.305C310.778 283.036 310.43 282.705 310.197 282.31C309.949 281.907 309.835 281.481 309.854 281.032C309.859 280.574 309.991 280.119 310.251 279.669C310.632 279.009 311.109 278.633 311.681 278.544C312.253 278.454 312.922 278.63 313.688 279.072ZM312.039 272.568L314.178 273.803L317.571 267.926L315.432 266.691L312.039 272.568ZM309.437 268.754L323.397 276.814L324.788 274.405L310.828 266.345L309.437 268.754ZM321.124 268.792C322.175 269.399 323.252 269.7 324.355 269.696C325.451 269.669 326.475 269.369 327.425 268.797C328.361 268.217 329.137 267.394 329.752 266.328C330.367 265.262 330.688 264.186 330.714 263.101C330.734 261.991 330.482 260.955 329.958 259.992C329.418 259.02 328.623 258.23 327.572 257.624C326.506 257.008 325.425 256.714 324.328 256.742C323.232 256.769 322.216 257.073 321.28 257.654C320.338 258.211 319.559 259.022 318.944 260.088C318.329 261.154 318.011 262.241 317.991 263.35C317.956 264.451 318.201 265.483 318.725 266.446C319.259 267.395 320.058 268.177 321.124 268.792ZM322.567 266.293C321.921 265.92 321.429 265.456 321.09 264.899C320.75 264.343 320.58 263.754 320.578 263.133C320.577 262.512 320.745 261.908 321.083 261.323C321.412 260.752 321.846 260.313 322.385 260.003C322.933 259.679 323.532 259.525 324.184 259.54C324.835 259.556 325.483 259.75 326.129 260.123C326.774 260.496 327.267 260.96 327.606 261.516C327.931 262.064 328.097 262.66 328.105 263.305C328.106 263.927 327.942 264.522 327.613 265.093C327.275 265.678 326.836 266.126 326.298 266.435C325.744 266.736 325.149 266.882 324.512 266.875C323.861 266.86 323.212 266.665 322.567 266.293Z" fill="black"/>
<path fill-rule="evenodd" clip-rule="evenodd" d="M397.411 125.458L382.575 134.396L388.841 137.86L328.201 247.564L330.799 249.064L391.467 139.312L397.733 142.775L397.411 125.458ZM232.428 427.026L229.829 425.526L167.358 538.543L169.983 539.994L232.428 427.026Z" fill="black"/>
</svg>
